<svg xmlns="http://www.w3.org/2000/svg" version="1.1" xmlns:xlink="http://www.w3.org/1999/xlink" xmlns:svgjs="http://svgjs.dev/svgjs" width="2000" height="1191" viewBox="0 0 2000 1191"><g transform="matrix(1,0,0,1,-1.2121185945260322,0.9110363557239225)"><svg viewBox="0 0 396 236" data-background-color="#ffffff" preserveAspectRatio="xMidYMid meet" height="1191" width="2000" xmlns="http://www.w3.org/2000/svg" xmlns:xlink="http://www.w3.org/1999/xlink"><g id="tight-bounds" transform="matrix(1,0,0,1,0.23999948171615415,-0.18052441641548)"><svg viewBox="0 0 395.52 236.36104804960402" height="236.36104804960402" width="395.52"><g><svg viewBox="0 0 395.52 236.36104804960402" height="236.36104804960402" width="395.52"><g transform="matrix(1,0,0,1,0,143.0659836773157)"><svg viewBox="0 0 395.52 93.29506437228832" height="93.29506437228832" width="395.52"><g id="textblocktransform"><svg viewBox="0 0 395.52 93.29506437228832" height="93.29506437228832" width="395.52" id="textblock"><g><svg viewBox="0 0 395.52 59.86294547015885" height="59.86294547015885" width="395.52"><g transform="matrix(1,0,0,1,0,0)"><svg width="395.52" viewBox="0.25 -35 232.88999938964844 35.25" height="59.86294547015885" data-palette-color="#000000"><path d="M31-35L16.9-12.05 16.9 0 14.35 0 14.35-12.05 0.25-35 3.05-35 15.7-14.4 28.35-35 31-35ZM50.55 0.25Q43.9 0.25 40.22-3.6 36.55-7.45 36.55-14.85L36.55-14.85 36.55-35 39.1-35 39.1-14.95Q39.1-8.5 42.05-5.3 45-2.1 50.6-2.1L50.6-2.1Q56.15-2.1 59.1-5.3 62.05-8.5 62.05-14.95L62.05-14.95 62.05-35 64.6-35 64.6-14.85Q64.6-7.45 60.9-3.6 57.2 0.25 50.55 0.25L50.55 0.25ZM112.1 0L109.6 0 109.55-29.95 94.9-4.65 93.65-4.65 79-29.85 79 0 76.5 0 76.5-35 78.65-35 94.3-7.95 109.95-35 112.05-35 112.1 0ZM150.24-35L152.79-35 152.79 0 150.24 0 150.24-16.65 126.84-16.65 126.84 0 124.29 0 124.29-35 126.84-35 126.84-18.9 150.24-18.9 150.24-35ZM178.69 0.25Q172.04 0.25 168.37-3.6 164.69-7.45 164.69-14.85L164.69-14.85 164.69-35 167.24-35 167.24-14.95Q167.24-8.5 170.19-5.3 173.14-2.1 178.74-2.1L178.74-2.1Q184.29-2.1 187.24-5.3 190.19-8.5 190.19-14.95L190.19-14.95 190.19-35 192.74-35 192.74-14.85Q192.74-7.45 189.04-3.6 185.34 0.25 178.69 0.25L178.69 0.25ZM225.44-18.05Q229.19-17.35 231.16-15.1 233.14-12.85 233.14-9.25L233.14-9.25Q233.14-4.8 229.89-2.4 226.64 0 220.24 0L220.24 0 204.64 0 204.64-35 219.24-35Q224.94-35 228.11-32.68 231.29-30.35 231.29-26.05L231.29-26.05Q231.29-23.05 229.71-21 228.14-18.95 225.44-18.05L225.44-18.05ZM219.14-32.8L207.19-32.8 207.19-18.85 219.14-18.85Q223.74-18.85 226.21-20.63 228.69-22.4 228.69-25.85L228.69-25.85Q228.69-29.25 226.21-31.03 223.74-32.8 219.14-32.8L219.14-32.8ZM220.24-2.2Q225.34-2.2 227.96-3.98 230.59-5.75 230.59-9.45L230.59-9.45Q230.59-13.15 227.96-14.9 225.34-16.65 220.24-16.65L220.24-16.65 207.19-16.65 207.19-2.2 220.24-2.2Z" opacity="1" transform="matrix(1,0,0,1,0,0)" fill="#ffffff" class="wordmark-text-0" data-fill-palette-color="primary" id="text-0"></path></svg></g></svg></g><g transform="matrix(1,0,0,1,75.54432,73.99515018497206)"><svg viewBox="0 0 244.43135999999998 19.29991418731625" height="19.29991418731625" width="244.43135999999998"><g transform="matrix(1,0,0,1,0,0)"><svg width="244.43135999999998" viewBox="2.75 -37 476.1499938964844 37.599998474121094" height="19.29991418731625" data-palette-color="#89939e"><path d="M17.4 0.6L17.4 0.6Q10.55 0.6 6.65-4.03 2.75-8.65 2.75-17.45L2.75-17.45Q2.75-21.85 3.75-25.2 4.75-28.55 6.65-30.85 8.55-33.15 11.28-34.33 14-35.5 17.4-35.5L17.4-35.5Q21.95-35.5 25.03-33.5 28.1-31.5 29.85-27.6L29.85-27.6 25.1-25Q24.2-27.5 22.33-28.98 20.45-30.45 17.4-30.45L17.4-30.45Q13.35-30.45 11.05-27.7 8.75-24.95 8.75-20.1L8.75-20.1 8.75-14.8Q8.75-9.95 11.05-7.2 13.35-4.45 17.4-4.45L17.4-4.45Q20.55-4.45 22.53-6.08 24.5-7.7 25.45-10.25L25.45-10.25 30-7.5Q28.25-3.7 25.1-1.55 21.95 0.6 17.4 0.6ZM35.6 0L35.6-37 41.05-37 41.05-21.7 41.3-21.7Q42.15-23.8 43.87-25.2 45.6-26.6 48.6-26.6L48.6-26.6Q52.6-26.6 54.82-23.98 57.05-21.35 57.05-16.5L57.05-16.5 57.05 0 51.6 0 51.6-15.85Q51.6-21.9 46.7-21.9L46.7-21.9Q45.65-21.9 44.62-21.63 43.6-21.35 42.8-20.8 42-20.25 41.52-19.4 41.05-18.55 41.05-17.45L41.05-17.45 41.05 0 35.6 0ZM74.8 0.6L74.8 0.6Q72.1 0.6 69.87-0.35 67.65-1.3 66.1-3.08 64.55-4.85 63.7-7.38 62.85-9.9 62.85-13L62.85-13Q62.85-16.1 63.7-18.63 64.55-21.15 66.1-22.93 67.65-24.7 69.87-25.65 72.1-26.6 74.8-26.6L74.8-26.6Q77.5-26.6 79.72-25.65 81.95-24.7 83.5-22.93 85.05-21.15 85.9-18.63 86.75-16.1 86.75-13L86.75-13Q86.75-9.9 85.9-7.38 85.05-4.85 83.5-3.08 81.95-1.3 79.72-0.35 77.5 0.6 74.8 0.6ZM74.8-3.9L74.8-3.9Q77.6-3.9 79.3-5.63 81-7.35 81-10.8L81-10.8 81-15.2Q81-18.65 79.3-20.38 77.6-22.1 74.8-22.1L74.8-22.1Q72-22.1 70.3-20.38 68.6-18.65 68.6-15.2L68.6-15.2 68.6-10.8Q68.6-7.35 70.3-5.63 72-3.9 74.8-3.9ZM102.99 0.6L102.99 0.6Q100.29 0.6 98.07-0.35 95.84-1.3 94.29-3.08 92.74-4.85 91.89-7.38 91.04-9.9 91.04-13L91.04-13Q91.04-16.1 91.89-18.63 92.74-21.15 94.29-22.93 95.84-24.7 98.07-25.65 100.29-26.6 102.99-26.6L102.99-26.6Q105.69-26.6 107.92-25.65 110.14-24.7 111.69-22.93 113.24-21.15 114.09-18.63 114.94-16.1 114.94-13L114.94-13Q114.94-9.9 114.09-7.38 113.24-4.85 111.69-3.08 110.14-1.3 107.92-0.35 105.69 0.6 102.99 0.6ZM102.99-3.9L102.99-3.9Q105.79-3.9 107.49-5.63 109.19-7.35 109.19-10.8L109.19-10.8 109.19-15.2Q109.19-18.65 107.49-20.38 105.79-22.1 102.99-22.1L102.99-22.1Q100.19-22.1 98.49-20.38 96.79-18.65 96.79-15.2L96.79-15.2 96.79-10.8Q96.79-7.35 98.49-5.63 100.19-3.9 102.99-3.9ZM129.24 0.6L129.24 0.6Q125.54 0.6 123.04-0.7 120.54-2 118.69-4.3L118.69-4.3 122.19-7.5Q123.64-5.75 125.42-4.78 127.19-3.8 129.54-3.8L129.54-3.8Q131.94-3.8 133.12-4.73 134.29-5.65 134.29-7.3L134.29-7.3Q134.29-8.55 133.47-9.43 132.64-10.3 130.59-10.55L130.59-10.55 128.19-10.85Q124.19-11.35 121.92-13.18 119.64-15 119.64-18.6L119.64-18.6Q119.64-20.5 120.34-21.98 121.04-23.45 122.32-24.48 123.59-25.5 125.37-26.05 127.14-26.6 129.29-26.6L129.29-26.6Q132.79-26.6 135.02-25.5 137.24-24.4 138.99-22.45L138.99-22.45 135.64-19.25Q134.64-20.45 133.02-21.33 131.39-22.2 129.29-22.2L129.29-22.2Q127.04-22.2 125.97-21.3 124.89-20.4 124.89-18.95L124.89-18.95Q124.89-17.45 125.84-16.7 126.79-15.95 128.89-15.6L128.89-15.6 131.29-15.3Q135.59-14.65 137.57-12.78 139.54-10.9 139.54-7.75L139.54-7.75Q139.54-5.85 138.82-4.33 138.09-2.8 136.74-1.7 135.39-0.6 133.49 0 131.59 0.6 129.24 0.6ZM155.89 0.6L155.89 0.6Q153.09 0.6 150.89-0.35 148.69-1.3 147.14-3.08 145.59-4.85 144.76-7.38 143.94-9.9 143.94-13L143.94-13Q143.94-16.1 144.76-18.63 145.59-21.15 147.14-22.93 148.69-24.7 150.89-25.65 153.09-26.6 155.89-26.6L155.89-26.6Q158.74-26.6 160.91-25.6 163.09-24.6 164.54-22.83 165.99-21.05 166.71-18.7 167.44-16.35 167.44-13.65L167.44-13.65 167.44-11.6 149.59-11.6 149.59-10.75Q149.59-7.75 151.36-5.83 153.14-3.9 156.44-3.9L156.44-3.9Q158.84-3.9 160.49-4.95 162.14-6 163.29-7.8L163.29-7.8 166.49-4.65Q165.04-2.25 162.29-0.83 159.54 0.6 155.89 0.6ZM155.89-22.35L155.89-22.35Q154.49-22.35 153.31-21.85 152.14-21.35 151.31-20.45 150.49-19.55 150.04-18.3 149.59-17.05 149.59-15.55L149.59-15.55 149.59-15.2 161.69-15.2 161.69-15.7Q161.69-18.7 160.14-20.53 158.59-22.35 155.89-22.35ZM197.23 0L192.48 0Q189.63 0 188.18-1.48 186.73-2.95 186.73-5.65L186.73-5.65 186.73-21.55 182.68-21.55 182.68-26 184.88-26Q186.23-26 186.76-26.6 187.28-27.2 187.28-28.55L187.28-28.55 187.28-33.1 192.18-33.1 192.18-26 197.63-26 197.63-21.55 192.18-21.55 192.18-4.45 197.23-4.45 197.23 0ZM203.53 0L203.53-37 208.98-37 208.98-21.7 209.23-21.7Q210.08-23.8 211.81-25.2 213.53-26.6 216.53-26.6L216.53-26.6Q220.53-26.6 222.76-23.98 224.98-21.35 224.98-16.5L224.98-16.5 224.98 0 219.53 0 219.53-15.85Q219.53-21.9 214.63-21.9L214.63-21.9Q213.58-21.9 212.56-21.63 211.53-21.35 210.73-20.8 209.93-20.25 209.46-19.4 208.98-18.55 208.98-17.45L208.98-17.45 208.98 0 203.53 0ZM242.73 0.6L242.73 0.6Q239.93 0.6 237.73-0.35 235.53-1.3 233.98-3.08 232.43-4.85 231.6-7.38 230.78-9.9 230.78-13L230.78-13Q230.78-16.1 231.6-18.63 232.43-21.15 233.98-22.93 235.53-24.7 237.73-25.65 239.93-26.6 242.73-26.6L242.73-26.6Q245.58-26.6 247.75-25.6 249.93-24.6 251.38-22.83 252.83-21.05 253.55-18.7 254.28-16.35 254.28-13.65L254.28-13.65 254.28-11.6 236.43-11.6 236.43-10.75Q236.43-7.75 238.2-5.83 239.98-3.9 243.28-3.9L243.28-3.9Q245.68-3.9 247.33-4.95 248.98-6 250.13-7.8L250.13-7.8 253.33-4.65Q251.88-2.25 249.13-0.83 246.38 0.6 242.73 0.6ZM242.73-22.35L242.73-22.35Q241.33-22.35 240.15-21.85 238.98-21.35 238.15-20.45 237.33-19.55 236.88-18.3 236.43-17.05 236.43-15.55L236.43-15.55 236.43-15.2 248.53-15.2 248.53-15.7Q248.53-18.7 246.98-20.53 245.43-22.35 242.73-22.35ZM272.12 0L272.12-37 277.57-37 277.57-21.7 277.82-21.7Q278.67-24.05 280.6-25.33 282.52-26.6 285.12-26.6L285.12-26.6Q290.07-26.6 292.77-23.03 295.47-19.45 295.47-13L295.47-13Q295.47-6.55 292.77-2.98 290.07 0.6 285.12 0.6L285.12 0.6Q282.52 0.6 280.6-0.7 278.67-2 277.82-4.3L277.82-4.3 277.57-4.3 277.57 0 272.12 0ZM283.47-4.1L283.47-4.1Q286.32-4.1 288.02-5.93 289.72-7.75 289.72-10.75L289.72-10.75 289.72-15.25Q289.72-18.25 288.02-20.08 286.32-21.9 283.47-21.9L283.47-21.9Q280.97-21.9 279.27-20.68 277.57-19.45 277.57-17.45L277.57-17.45 277.57-8.55Q277.57-6.55 279.27-5.33 280.97-4.1 283.47-4.1ZM311.92 0.6L311.92 0.6Q309.12 0.6 306.92-0.35 304.72-1.3 303.17-3.08 301.62-4.85 300.8-7.38 299.97-9.9 299.97-13L299.97-13Q299.97-16.1 300.8-18.63 301.62-21.15 303.17-22.93 304.72-24.7 306.92-25.65 309.12-26.6 311.92-26.6L311.92-26.6Q314.77-26.6 316.95-25.6 319.12-24.6 320.57-22.83 322.02-21.05 322.75-18.7 323.47-16.35 323.47-13.65L323.47-13.65 323.47-11.6 305.62-11.6 305.62-10.75Q305.62-7.75 307.4-5.83 309.17-3.9 312.47-3.9L312.47-3.9Q314.87-3.9 316.52-4.95 318.17-6 319.32-7.8L319.32-7.8 322.52-4.65Q321.07-2.25 318.32-0.83 315.57 0.6 311.92 0.6ZM311.92-22.35L311.92-22.35Q310.52-22.35 309.35-21.85 308.17-21.35 307.35-20.45 306.52-19.55 306.07-18.3 305.62-17.05 305.62-15.55L305.62-15.55 305.62-15.2 317.72-15.2 317.72-15.7Q317.72-18.7 316.17-20.53 314.62-22.35 311.92-22.35ZM337.77 0.6L337.77 0.6Q334.07 0.6 331.57-0.7 329.07-2 327.22-4.3L327.22-4.3 330.72-7.5Q332.17-5.75 333.94-4.78 335.72-3.8 338.07-3.8L338.07-3.8Q340.47-3.8 341.64-4.73 342.82-5.65 342.82-7.3L342.82-7.3Q342.82-8.55 341.99-9.43 341.17-10.3 339.12-10.55L339.12-10.55 336.72-10.85Q332.72-11.35 330.44-13.18 328.17-15 328.17-18.6L328.17-18.6Q328.17-20.5 328.87-21.98 329.57-23.45 330.84-24.48 332.12-25.5 333.89-26.05 335.67-26.6 337.82-26.6L337.82-26.6Q341.32-26.6 343.54-25.5 345.77-24.4 347.52-22.45L347.52-22.45 344.17-19.25Q343.17-20.45 341.54-21.33 339.92-22.2 337.82-22.2L337.82-22.2Q335.57-22.2 334.49-21.3 333.42-20.4 333.42-18.95L333.42-18.95Q333.42-17.45 334.37-16.7 335.32-15.95 337.42-15.6L337.42-15.6 339.82-15.3Q344.12-14.65 346.09-12.78 348.07-10.9 348.07-7.75L348.07-7.75Q348.07-5.85 347.34-4.33 346.62-2.8 345.27-1.7 343.92-0.6 342.02 0 340.12 0.6 337.77 0.6ZM365.82 0L361.07 0Q358.22 0 356.77-1.48 355.32-2.95 355.32-5.65L355.32-5.65 355.32-21.55 351.27-21.55 351.27-26 353.47-26Q354.82-26 355.34-26.6 355.87-27.2 355.87-28.55L355.87-28.55 355.87-33.1 360.77-33.1 360.77-26 366.22-26 366.22-21.55 360.77-21.55 360.77-4.45 365.82-4.45 365.82 0ZM385.26 0L385.26-21.55 381.31-21.55 381.31-26 385.26-26 385.26-30.3Q385.26-33.45 386.91-35.23 388.56-37 391.86-37L391.86-37 396.16-37 396.16-32.55 390.71-32.55 390.71-26 396.16-26 396.16-21.55 390.71-21.55 390.71 0 385.26 0ZM410.91 0.6L410.91 0.6Q408.21 0.6 405.98-0.35 403.76-1.3 402.21-3.08 400.66-4.85 399.81-7.38 398.96-9.9 398.96-13L398.96-13Q398.96-16.1 399.81-18.63 400.66-21.15 402.21-22.93 403.76-24.7 405.98-25.65 408.21-26.6 410.91-26.6L410.91-26.6Q413.61-26.6 415.83-25.65 418.06-24.7 419.61-22.93 421.16-21.15 422.01-18.63 422.86-16.1 422.86-13L422.86-13Q422.86-9.9 422.01-7.38 421.16-4.85 419.61-3.08 418.06-1.3 415.83-0.35 413.61 0.6 410.91 0.6ZM410.91-3.9L410.91-3.9Q413.71-3.9 415.41-5.63 417.11-7.35 417.11-10.8L417.11-10.8 417.11-15.2Q417.11-18.65 415.41-20.38 413.71-22.1 410.91-22.1L410.91-22.1Q408.11-22.1 406.41-20.38 404.71-18.65 404.71-15.2L404.71-15.2 404.71-10.8Q404.71-7.35 406.41-5.63 408.11-3.9 410.91-3.9ZM439.11 0.6L439.11 0.6Q436.41 0.6 434.18-0.35 431.96-1.3 430.41-3.08 428.86-4.85 428.01-7.38 427.16-9.9 427.16-13L427.16-13Q427.16-16.1 428.01-18.63 428.86-21.15 430.41-22.93 431.96-24.7 434.18-25.65 436.41-26.6 439.11-26.6L439.11-26.6Q441.81-26.6 444.03-25.65 446.26-24.7 447.81-22.93 449.36-21.15 450.21-18.63 451.06-16.1 451.06-13L451.06-13Q451.06-9.9 450.21-7.38 449.36-4.85 447.81-3.08 446.26-1.3 444.03-0.35 441.81 0.6 439.11 0.6ZM439.11-3.9L439.11-3.9Q441.91-3.9 443.61-5.63 445.31-7.35 445.31-10.8L445.31-10.8 445.31-15.2Q445.31-18.65 443.61-20.38 441.91-22.1 439.11-22.1L439.11-22.1Q436.31-22.1 434.61-20.38 432.91-18.65 432.91-15.2L432.91-15.2 432.91-10.8Q432.91-7.35 434.61-5.63 436.31-3.9 439.11-3.9ZM473.45 0L473.45-4.3 473.2-4.3Q472.35-2 470.43-0.7 468.5 0.6 465.9 0.6L465.9 0.6Q460.95 0.6 458.25-2.98 455.55-6.55 455.55-13L455.55-13Q455.55-19.45 458.25-23.03 460.95-26.6 465.9-26.6L465.9-26.6Q468.5-26.6 470.43-25.33 472.35-24.05 473.2-21.7L473.2-21.7 473.45-21.7 473.45-37 478.9-37 478.9 0 473.45 0ZM467.55-4.1L467.55-4.1Q470.05-4.1 471.75-5.33 473.45-6.55 473.45-8.55L473.45-8.55 473.45-17.45Q473.45-19.45 471.75-20.68 470.05-21.9 467.55-21.9L467.55-21.9Q464.7-21.9 463-20.08 461.3-18.25 461.3-15.25L461.3-15.25 461.3-10.75Q461.3-7.75 463-5.93 464.7-4.1 467.55-4.1Z" opacity="1" transform="matrix(1,0,0,1,0,0)" fill="#ffffff" class="slogan-text-1" data-fill-palette-color="secondary" id="text-1"></path></svg></g></svg></g></svg></g></svg></g><g transform="matrix(1,0,0,1,133.60217518112484,0)"><svg viewBox="0 0 128.3156496377503 128.9337789625025" height="128.9337789625025" width="128.3156496377503"><g><svg xmlns="http://www.w3.org/2000/svg" xmlns:xlink="http://www.w3.org/1999/xlink" version="1.1" x="8" y="0" viewBox="10.100000381469727 5.199999809265137 78.4000015258789 90" enable-background="new 0 0 100 100" xml:space="preserve" height="128.9337789625025" width="112.31564963775031" class="icon-icon-0" data-fill-palette-color="accent" id="icon-0"><polygon fill-rule="evenodd" clip-rule="evenodd" fill="#ffffff" points="88.5,28.2 68.4,59.9 68.5,22.3 " data-fill-palette-color="accent"></polygon><polygon fill-rule="evenodd" clip-rule="evenodd" fill="#ffffff" points="49.8,5.2 67.2,38.5 34.7,19.6 " data-fill-palette-color="accent"></polygon><polygon fill-rule="evenodd" clip-rule="evenodd" fill="#ffffff" points="67.8,38.3 67.8,22.3 60.8,24.5 " data-fill-palette-color="accent"></polygon><polygon fill-rule="evenodd" clip-rule="evenodd" fill="#ffffff" points="88.2,73.2 50.6,71.7 83.2,52.9 " data-fill-palette-color="accent"></polygon><polygon fill-rule="evenodd" clip-rule="evenodd" fill="#ffffff" points="69.1,60.3 82.8,52.3 77.4,47.4 " data-fill-palette-color="accent"></polygon><polygon fill-rule="evenodd" clip-rule="evenodd" fill="#ffffff" points="48.7,95.2 31.5,61.9 63.9,80.9 " data-fill-palette-color="accent"></polygon><polygon fill-rule="evenodd" clip-rule="evenodd" fill="#ffffff" points="50.5,72.2 64.2,80.2 65.8,73.1 " data-fill-palette-color="accent"></polygon><polygon fill-rule="evenodd" clip-rule="evenodd" fill="#ffffff" points="10.1,72 30.5,40.4 30.1,78 " data-fill-palette-color="accent"></polygon><polygon fill-rule="evenodd" clip-rule="evenodd" fill="#ffffff" points="30.9,62.1 30.8,78 37.8,75.8 " data-fill-palette-color="accent"></polygon><polygon fill-rule="evenodd" clip-rule="evenodd" fill="#ffffff" points="11,27 48.5,28.9 15.8,47.3 " data-fill-palette-color="accent"></polygon><polygon fill-rule="evenodd" clip-rule="evenodd" fill="#ffffff" points="30,40.1 16.1,47.9 21.5,52.9 " data-fill-palette-color="accent"></polygon><polygon fill-rule="evenodd" clip-rule="evenodd" fill="#ffffff" points="48.2,28.3 34.5,20.2 32.9,27.4 " data-fill-palette-color="accent"></polygon></svg></g></svg></g><g><rect width="133.60217518112484" height="5.39850220105865" y="122.53527676144384" x="261.91782481887515" fill="#ffffff" data-fill-palette-color="accent"></rect><rect width="133.60217518112484" height="5.39850220105865" y="122.53527676144384" x="0" fill="#ffffff" data-fill-palette-color="accent"></rect><rect width="133.60217518112484" height="5.39850220105865" y="111.73827235932654" x="261.91782481887515" fill="#ffffff" data-fill-palette-color="accent"></rect><rect width="133.60217518112484" height="5.39850220105865" y="111.73827235932654" x="0" fill="#ffffff" data-fill-palette-color="accent"></rect></g></svg></g><defs></defs></svg><rect width="395.52" height="236.36104804960402" fill="none" stroke="none" visibility="hidden"></rect></g></svg></g></svg>